<?xml version="1.0" encoding="UTF-8" standalone="no"?>
<!-- Created with Inkscape (http://www.inkscape.org/) -->

<svg
   width="116.94073mm"
   height="27.735798mm"
   viewBox="0 0 116.94073 27.735798"
   version="1.1"
   id="svg1"
   inkscape:export-filename="ビットマップ.svg"
   inkscape:export-xdpi="96"
   inkscape:export-ydpi="96"
   xmlns:inkscape="http://www.inkscape.org/namespaces/inkscape"
   xmlns:sodipodi="http://sodipodi.sourceforge.net/DTD/sodipodi-0.dtd"
   xmlns="http://www.w3.org/2000/svg"
   xmlns:svg="http://www.w3.org/2000/svg">
  <sodipodi:namedview
     id="namedview1"
     pagecolor="#ffffff"
     bordercolor="#000000"
     borderopacity="0.25"
     inkscape:showpageshadow="2"
     inkscape:pageopacity="0.0"
     inkscape:pagecheckerboard="0"
     inkscape:deskcolor="#d1d1d1"
     inkscape:document-units="mm">
    <inkscape:page
       x="0"
       y="4.3351747e-16"
       width="116.94073"
       height="27.7358"
       id="page2"
       margin="0"
       bleed="0" />
  </sodipodi:namedview>
  <defs
     id="defs1" />
  <g
     inkscape:label="Layer 1"
     inkscape:groupmode="layer"
     id="layer1"
     transform="translate(-28.136085,-70.727803)">
    <path
       id="text1"
       style="font-style:normal;font-variant:normal;font-weight:normal;font-stretch:normal;font-size:22.5778px;font-family:'Mochiy Pop One';-inkscape-font-specification:'Mochiy Pop One';text-align:start;writing-mode:lr-tb;direction:ltr;text-anchor:start;opacity:0.98;fill:#ff00ff;stroke:#1a1a1a;stroke-width:6.4;stroke-linecap:butt;stroke-linejoin:round;stroke-dasharray:none;paint-order:markers stroke fill"
       sodipodi:type="inkscape:offset"
       inkscape:radius="0"
       inkscape:original="M 40.728516 73.927734 L 37.455078 74.853516 C 37.575493 75.395383 37.772035 76.019125 38.042969 76.726562 C 38.328954 77.418948 38.637609 78.065894 38.96875 78.667969 C 37.990379 78.863643 36.981938 79.098207 35.943359 79.369141 C 34.904781 79.640074 33.879569 79.910707 32.871094 80.181641 L 33.955078 83.634766 C 35.415109 83.10795 36.763794 82.687183 37.998047 82.371094 C 39.2323 82.055005 40.232355 81.828826 41 81.693359 C 41.782697 81.542841 42.226668 81.46875 42.332031 81.46875 C 42.602965 81.46875 42.738281 81.542841 42.738281 81.693359 C 42.738281 81.783671 42.594579 81.995031 42.308594 82.326172 C 42.022608 82.657313 41.587023 83.101284 41 83.658203 C 40.428029 84.215122 39.75788 84.838864 38.990234 85.53125 C 38.222589 86.208584 37.402305 86.910323 36.529297 87.632812 C 35.67134 88.34025 34.791784 89.023265 33.888672 89.685547 C 33.000612 90.347829 32.148738 90.943888 31.335938 91.470703 L 33.751953 94.541016 C 34.083094 94.209875 34.520633 93.839994 35.0625 93.433594 C 35.604367 93.027193 36.190087 92.621244 36.822266 92.214844 C 37.469496 91.808443 38.110009 91.440516 38.742188 91.109375 C 39.374366 90.763182 39.947221 90.484164 40.458984 90.273438 C 40.970748 90.062711 41.368311 89.957031 41.654297 89.957031 C 42.00049 89.957031 42.173828 90.191595 42.173828 90.658203 L 42.173828 91.109375 C 42.173828 91.560931 42.287894 92.042924 42.513672 92.554688 C 42.73945 93.051399 43.092559 93.472166 43.574219 93.818359 C 44.07093 94.164552 44.703058 94.337891 45.470703 94.337891 C 45.892155 94.337891 46.365763 94.232211 46.892578 94.021484 C 47.434445 93.82581 47.984097 93.569995 48.541016 93.253906 C 49.097935 92.937817 49.624382 92.614344 50.121094 92.283203 C 50.617805 91.93701 51.055344 91.628355 51.431641 91.357422 C 51.807937 91.071436 52.070184 90.860076 52.220703 90.724609 L 50.099609 87.947266 C 49.979194 88.052629 49.74463 88.249171 49.398438 88.535156 C 49.052245 88.80609 48.661114 89.099926 48.224609 89.416016 C 47.803157 89.732105 47.397208 90.00917 47.005859 90.25 C 46.629563 90.475778 46.344112 90.589844 46.148438 90.589844 C 45.982867 90.589844 45.868801 90.537004 45.808594 90.431641 C 45.748386 90.311226 45.71875 90.167524 45.71875 90.001953 C 45.71875 89.851434 45.727136 89.694867 45.742188 89.529297 C 45.772291 89.363726 45.787109 89.205206 45.787109 89.054688 C 45.787109 88.121472 45.560931 87.46614 45.109375 87.089844 C 44.657819 86.698495 44.137804 86.503906 43.550781 86.503906 C 43.325003 86.503906 43.092392 86.533543 42.851562 86.59375 C 42.625784 86.638906 42.399606 86.698178 42.173828 86.773438 C 42.489917 86.532608 42.874616 86.223953 43.326172 85.847656 C 43.79278 85.47136 44.266387 85.06541 44.748047 84.628906 C 45.229707 84.17735 45.673678 83.710175 46.080078 83.228516 C 46.50153 82.746856 46.839821 82.266816 47.095703 81.785156 C 47.366637 81.303497 47.501953 80.85114 47.501953 80.429688 C 47.501953 79.541627 47.172048 78.924318 46.509766 78.578125 C 45.847483 78.21688 44.959541 78.037109 43.845703 78.037109 C 43.415674 78.037109 42.939556 78.05969 42.421875 78.103516 C 42.316512 77.847634 42.151559 77.471321 41.925781 76.974609 C 41.715055 76.462846 41.497262 75.929966 41.271484 75.373047 C 41.045706 74.816128 40.863982 74.334135 40.728516 73.927734 z M 94.058594 73.972656 L 92.703125 75.011719 C 92.82354 75.237497 93.011696 75.514562 93.267578 75.845703 C 93.538512 76.161792 93.809145 76.464015 94.080078 76.75 C 94.366064 77.020934 94.583856 77.215523 94.734375 77.335938 L 95.931641 76.003906 C 95.585448 75.748025 95.238771 75.424552 94.892578 75.033203 C 94.546385 74.626803 94.26932 74.273694 94.058594 73.972656 z M 60.619141 74.220703 C 60.393363 74.852882 60.183956 75.508213 59.988281 76.185547 C 59.792607 76.862881 59.610883 77.547848 59.445312 78.240234 C 58.466941 78.345597 57.549363 78.472528 56.691406 78.623047 C 55.83345 78.758514 55.104028 78.923466 54.501953 79.119141 L 54.636719 82.054688 C 55.13343 81.979428 55.742354 81.905337 56.464844 81.830078 C 57.202385 81.739767 58.001419 81.655337 58.859375 81.580078 C 58.784116 82.152049 58.72289 82.724904 58.677734 83.296875 C 58.647631 83.853794 58.632813 84.403445 58.632812 84.945312 L 58.632812 84.990234 C 57.925375 85.095597 57.271997 85.178074 56.669922 85.238281 C 56.067847 85.298489 55.539447 85.344896 55.087891 85.375 L 55.291016 88.490234 L 55.744141 88.490234 C 56.195697 88.490234 56.684122 88.467031 57.210938 88.421875 C 57.752805 88.376719 58.32566 88.323879 58.927734 88.263672 C 59.168564 89.482873 59.574513 90.57379 60.146484 91.537109 C 60.718455 92.500429 61.492332 93.253055 62.470703 93.794922 C 63.449074 94.351841 64.668875 94.630859 66.128906 94.630859 C 67.483574 94.630859 68.650535 94.427885 69.628906 94.021484 C 70.607278 93.630136 71.427562 93.103688 72.089844 92.441406 C 72.767178 91.779124 73.323261 91.041316 73.759766 90.228516 C 74.211322 89.400663 74.581202 88.571993 74.867188 87.744141 L 71.886719 85.984375 C 71.269592 87.670184 70.523399 88.978894 69.650391 89.912109 C 68.777382 90.845325 67.665215 91.3125 66.310547 91.3125 C 65.738576 91.3125 65.195357 91.20682 64.683594 90.996094 C 64.17183 90.785368 63.721427 90.41744 63.330078 89.890625 C 62.93873 89.36381 62.644893 88.632435 62.449219 87.699219 C 63.818939 87.443337 65.142466 87.164319 66.421875 86.863281 C 67.701284 86.547192 68.756132 86.261741 69.583984 86.005859 L 68.792969 82.935547 C 67.980168 83.191429 66.986546 83.455629 65.8125 83.726562 C 64.638454 83.982444 63.427039 84.215055 62.177734 84.425781 C 62.192786 83.92907 62.21599 83.425826 62.246094 82.914062 C 62.291249 82.387247 62.350522 81.858847 62.425781 81.332031 C 63.193426 81.286876 63.954438 81.257239 64.707031 81.242188 C 65.459625 81.212084 66.174228 81.197266 66.851562 81.197266 C 67.39343 81.197266 67.898626 81.212084 68.365234 81.242188 C 68.846894 81.257239 69.274094 81.280443 69.650391 81.310547 L 69.787109 78.216797 C 69.275346 78.126486 68.649651 78.058827 67.912109 78.013672 C 67.174568 77.968516 66.369102 77.945312 65.496094 77.945312 C 64.713397 77.945313 63.909884 77.960131 63.082031 77.990234 C 63.368017 76.891448 63.69149 75.876575 64.052734 74.943359 L 60.619141 74.220703 z M 91.755859 74.400391 L 90.197266 75.123047 C 90.272525 75.363877 90.416227 75.680917 90.626953 76.072266 C 90.852731 76.448562 91.085342 76.810057 91.326172 77.15625 C 91.567002 77.502443 91.755158 77.749872 91.890625 77.900391 L 93.267578 76.75 C 92.951489 76.433911 92.657652 76.049212 92.386719 75.597656 C 92.115785 75.1461 91.906378 74.746584 91.755859 74.400391 z M 83.988281 74.716797 C 83.310947 74.716797 82.602776 74.769637 81.865234 74.875 C 81.127693 74.980363 80.368635 75.147269 79.585938 75.373047 L 80.443359 78.759766 C 81.01533 78.549039 81.617822 78.390519 82.25 78.285156 C 82.882178 78.164741 83.476284 78.103516 84.033203 78.103516 C 84.665382 78.103516 85.191829 78.185992 85.613281 78.351562 C 86.034734 78.517133 86.246094 78.796151 86.246094 79.1875 C 86.246094 79.473485 86.06437 79.820162 85.703125 80.226562 C 85.34188 80.617911 84.815433 81.009042 84.123047 81.400391 C 83.445713 81.776687 82.610611 82.085342 81.617188 82.326172 L 82.294922 85.802734 C 82.580907 85.727475 82.874744 85.674635 83.175781 85.644531 C 83.49187 85.599376 83.806958 85.578125 84.123047 85.578125 C 84.905744 85.578125 85.620348 85.681852 86.267578 85.892578 C 86.914808 86.088252 87.428391 86.405293 87.804688 86.841797 C 88.196036 87.263249 88.390625 87.8129 88.390625 88.490234 C 88.390625 89.032102 88.255309 89.528913 87.984375 89.980469 C 87.728493 90.416973 87.390202 90.808104 86.96875 91.154297 C 86.56235 91.50049 86.124811 91.800759 85.658203 92.056641 C 85.191595 92.29747 84.75601 92.494013 84.349609 92.644531 L 87.171875 95.263672 C 88.01478 94.812116 88.805427 94.277283 89.542969 93.660156 C 90.295562 93.04303 90.904486 92.32004 91.371094 91.492188 C 91.852753 90.649283 92.09375 89.68725 92.09375 88.603516 C 92.09375 87.143485 91.72387 85.908866 90.986328 84.900391 C 90.248787 83.876864 89.119848 83.168692 87.599609 82.777344 C 87.945802 82.596721 88.307297 82.317703 88.683594 81.941406 C 89.074942 81.56511 89.406801 81.129524 89.677734 80.632812 C 89.96372 80.121049 90.107422 79.594602 90.107422 79.052734 C 90.107422 78.811905 90.061014 78.509682 89.970703 78.148438 C 89.880392 77.787193 89.715439 77.41088 89.474609 77.019531 C 89.23378 76.613131 88.887103 76.236818 88.435547 75.890625 C 87.983991 75.544432 87.389885 75.267367 86.652344 75.056641 C 85.929854 74.830863 85.041912 74.716797 83.988281 74.716797 z M 136.07422 74.830078 C 135.56246 75.161219 134.95353 75.545918 134.24609 75.982422 C 133.55371 76.418926 132.82429 76.884148 132.05664 77.380859 C 131.30405 77.877571 130.55142 78.382768 129.79883 78.894531 C 129.06129 79.406295 128.38275 79.89472 127.76562 80.361328 C 127.1485 80.827936 126.63687 81.242271 126.23047 81.603516 C 125.40262 82.356109 124.77887 83.055895 124.35742 83.703125 C 123.95102 84.350355 123.74805 84.982483 123.74805 85.599609 C 123.74805 86.216736 123.95745 86.82566 124.37891 87.427734 C 124.81541 88.029809 125.46431 88.66389 126.32227 89.326172 C 127.15012 89.95835 128.0677 90.552456 129.07617 91.109375 C 130.0997 91.666294 131.14616 92.177923 132.21484 92.644531 C 133.28353 93.111139 134.3216 93.525474 135.33008 93.886719 C 136.35361 94.247964 137.27957 94.556618 138.10742 94.8125 L 139.95898 91.222656 C 138.4538 90.816256 136.9698 90.355513 135.50977 89.84375 C 134.06479 89.316935 132.74769 88.769237 131.55859 88.197266 C 130.3695 87.610243 129.43067 87.045773 128.73828 86.503906 C 128.27167 86.12761 128.03711 85.757729 128.03711 85.396484 C 128.03711 85.005136 128.28649 84.590801 128.7832 84.154297 C 129.21971 83.793052 129.78418 83.363899 130.47656 82.867188 C 131.184 82.370476 131.97269 81.844028 132.8457 81.287109 C 133.73376 80.73019 134.65973 80.174107 135.62305 79.617188 C 136.60142 79.045217 137.58022 78.501998 138.55859 77.990234 L 136.07422 74.830078 z M 110.29102 74.964844 C 108.99656 74.964844 107.60537 75.123364 106.11523 75.439453 C 104.64015 75.755542 102.96799 76.313579 101.10156 77.111328 L 102.11719 80.677734 C 102.82463 80.346593 103.56243 80.046324 104.33008 79.775391 C 105.11278 79.489405 105.87379 79.240023 106.61133 79.029297 C 107.36392 78.818571 108.04889 78.653618 108.66602 78.533203 C 109.29819 78.412788 109.81626 78.351562 110.22266 78.351562 C 110.71937 78.351562 110.96875 78.45081 110.96875 78.646484 C 110.96875 78.812055 110.86307 79.000211 110.65234 79.210938 C 110.30615 79.55713 109.77132 79.992716 109.04883 80.519531 C 108.34139 81.031295 107.45345 81.557742 106.38477 82.099609 C 105.33113 82.641477 104.11329 83.138288 102.72852 83.589844 L 103.87891 87.134766 C 105.068 86.577847 106.09965 86.171897 106.97266 85.916016 C 107.84566 85.645082 108.57509 85.465311 109.16211 85.375 C 109.74913 85.284689 110.21631 85.238281 110.5625 85.238281 C 111.26994 85.238281 111.92527 85.335576 112.52734 85.53125 C 113.14447 85.726924 113.63933 86.029146 114.01562 86.435547 C 114.39192 86.826895 114.58008 87.330139 114.58008 87.947266 C 114.58008 88.38377 114.38549 88.85933 113.99414 89.371094 C 113.61784 89.882857 113.00053 90.318443 112.14258 90.679688 C 111.29967 91.040932 110.18555 91.222656 108.80078 91.222656 C 108.01808 91.222656 107.13014 91.138227 106.13672 90.972656 C 105.15835 90.792034 104.07386 90.50015 102.88477 90.09375 L 103.29297 93.818359 C 104.46701 94.119397 105.55793 94.337189 106.56641 94.472656 C 107.57488 94.608123 108.50085 94.675781 109.34375 94.675781 C 111.21018 94.675781 112.81916 94.360694 114.17383 93.728516 C 115.5285 93.111389 116.56853 92.282719 117.29102 91.244141 C 118.02856 90.205562 118.39648 89.070191 118.39648 87.835938 C 118.39648 86.962929 118.20833 86.1871 117.83203 85.509766 C 117.47079 84.832432 116.97398 84.259577 116.3418 83.792969 C 115.72467 83.311309 115.02488 82.949814 114.24219 82.708984 C 113.45949 82.468155 112.64759 82.349609 111.80469 82.349609 L 111.64648 82.349609 C 112.24856 82.093728 112.81303 81.768302 113.33984 81.376953 C 113.86666 80.985605 114.29581 80.535201 114.62695 80.023438 C 114.97315 79.496622 115.14453 78.917335 115.14453 78.285156 C 115.14453 77.517511 114.92674 76.891816 114.49023 76.410156 C 114.06878 75.913445 113.48949 75.55195 112.75195 75.326172 C 112.02946 75.085342 111.20918 74.964844 110.29102 74.964844 z M 139.61914 79.097656 L 138.51367 80.384766 C 138.67924 80.58044 138.92024 80.813051 139.23633 81.083984 C 139.56747 81.339866 139.89094 81.580863 140.20703 81.806641 C 140.53817 82.017367 140.79399 82.161069 140.97461 82.236328 L 141.87695 80.677734 C 141.4856 80.497112 141.07322 80.256115 140.63672 79.955078 C 140.21527 79.638989 139.87502 79.353538 139.61914 79.097656 z M 137.45312 80 L 136.09766 81.017578 C 136.21807 81.243356 136.42105 81.520421 136.70703 81.851562 C 137.00807 82.182704 137.31029 82.491358 137.61133 82.777344 C 137.92742 83.063329 138.16003 83.259871 138.31055 83.365234 L 139.41602 81.964844 C 139.05477 81.724014 138.68684 81.415359 138.31055 81.039062 C 137.9493 80.647714 137.66385 80.301037 137.45312 80 z M 95.1875 83.658203 L 92.09375 84.966797 C 92.470047 85.71939 92.816723 86.586082 93.132812 87.564453 C 93.448902 88.542824 93.719534 89.521629 93.945312 90.5 C 94.186142 91.463319 94.359481 92.328058 94.464844 93.095703 L 98.03125 92.080078 C 97.955991 91.568315 97.82906 90.936187 97.648438 90.183594 C 97.467815 89.431 97.241637 88.648738 96.970703 87.835938 C 96.714821 87.023137 96.42937 86.247307 96.113281 85.509766 C 95.812244 84.772224 95.503589 84.154915 95.1875 83.658203 z M 78.140625 85.554688 C 78.050314 85.810569 77.914997 86.262926 77.734375 86.910156 C 77.568804 87.542335 77.380648 88.271757 77.169922 89.099609 C 76.974248 89.927462 76.800909 90.756132 76.650391 91.583984 C 76.499872 92.411837 76.402577 93.141259 76.357422 93.773438 L 79.902344 94.585938 C 80.007707 93.833344 80.128205 92.983424 80.263672 92.035156 C 80.414191 91.086889 80.585576 90.137721 80.78125 89.189453 C 80.976924 88.226134 81.203103 87.361395 81.458984 86.59375 L 78.140625 85.554688 z "
       d="m 40.728516,73.927734 -3.273438,0.925782 c 0.120415,0.541867 0.316957,1.165609 0.587891,1.873046 0.285985,0.692386 0.59464,1.339332 0.925781,1.941407 -0.978371,0.195674 -1.986812,0.430238 -3.025391,0.701172 -1.038578,0.270933 -2.06379,0.541566 -3.072265,0.8125 l 1.083984,3.453125 C 35.415109,83.10795 36.763794,82.687183 37.998047,82.371094 39.2323,82.055005 40.232355,81.828826 41,81.693359 c 0.782697,-0.150518 1.226668,-0.224609 1.332031,-0.224609 0.270934,0 0.40625,0.07409 0.40625,0.224609 0,0.09031 -0.143702,0.301672 -0.429687,0.632813 -0.285986,0.331141 -0.721571,0.775112 -1.308594,1.332031 -0.571971,0.556919 -1.24212,1.180661 -2.009766,1.873047 -0.767645,0.677334 -1.587929,1.379073 -2.460937,2.101562 -0.857957,0.707438 -1.737513,1.390453 -2.640625,2.052735 -0.88806,0.662282 -1.739934,1.258341 -2.552734,1.785156 l 2.416015,3.070313 c 0.331141,-0.331141 0.76868,-0.701022 1.310547,-1.107422 0.541867,-0.406401 1.127587,-0.81235 1.759766,-1.21875 0.64723,-0.406401 1.287743,-0.774328 1.919922,-1.105469 0.632178,-0.346193 1.205033,-0.625211 1.716796,-0.835937 0.511764,-0.210727 0.909327,-0.316407 1.195313,-0.316407 0.346193,0 0.519531,0.234564 0.519531,0.701172 v 0.451172 c 0,0.451556 0.114066,0.933549 0.339844,1.445313 0.225778,0.496711 0.578887,0.917478 1.060547,1.263671 0.496711,0.346193 1.128839,0.519532 1.896484,0.519532 0.421452,0 0.89506,-0.10568 1.421875,-0.316407 0.541867,-0.195674 1.091519,-0.451489 1.648438,-0.767578 0.556919,-0.316089 1.083366,-0.639562 1.580078,-0.970703 0.496711,-0.346193 0.93425,-0.654848 1.310547,-0.925781 0.376296,-0.285986 0.638543,-0.497346 0.789062,-0.632813 l -2.121094,-2.777343 c -0.120415,0.105363 -0.354979,0.301905 -0.701171,0.58789 -0.346193,0.270934 -0.737324,0.56477 -1.173829,0.88086 -0.421452,0.316089 -0.827401,0.593154 -1.21875,0.833984 -0.376296,0.225778 -0.661747,0.339844 -0.857421,0.339844 -0.165571,0 -0.279637,-0.05284 -0.339844,-0.158203 -0.06021,-0.120415 -0.08984,-0.264117 -0.08984,-0.429688 0,-0.150519 0.0084,-0.307086 0.02344,-0.472656 0.0301,-0.165571 0.04492,-0.324091 0.04492,-0.474609 0,-0.933216 -0.226178,-1.588548 -0.677734,-1.964844 -0.451556,-0.391349 -0.971571,-0.585938 -1.558594,-0.585938 -0.225778,0 -0.458389,0.02964 -0.699219,0.08984 -0.225778,0.04516 -0.451956,0.104428 -0.677734,0.179688 0.316089,-0.24083 0.700788,-0.549485 1.152344,-0.925782 0.466608,-0.376296 0.940215,-0.782246 1.421875,-1.21875 0.48166,-0.451556 0.925631,-0.918731 1.332031,-1.40039 0.421452,-0.48166 0.759743,-0.9617 1.015625,-1.44336 0.270934,-0.481659 0.40625,-0.934016 0.40625,-1.355468 0,-0.888061 -0.329905,-1.50537 -0.992187,-1.851563 -0.662283,-0.361245 -1.550225,-0.541016 -2.664063,-0.541016 -0.430029,0 -0.906147,0.02258 -1.423828,0.06641 -0.105363,-0.255882 -0.270316,-0.632195 -0.496094,-1.128907 -0.210726,-0.511763 -0.428519,-1.044643 -0.654297,-1.601562 -0.225778,-0.556919 -0.407502,-1.038912 -0.542968,-1.445313 z m 53.330078,0.04492 -1.355469,1.039063 c 0.120415,0.225778 0.308571,0.502843 0.564453,0.833984 0.270934,0.316089 0.541567,0.618312 0.8125,0.904297 0.285986,0.270934 0.503778,0.465523 0.654297,0.585938 l 1.197266,-1.332032 c -0.346193,-0.255881 -0.69287,-0.579354 -1.039063,-0.970703 -0.346193,-0.4064 -0.623258,-0.759509 -0.833984,-1.060547 z m -33.439453,0.248047 c -0.225778,0.632179 -0.435185,1.28751 -0.63086,1.964844 -0.195674,0.677334 -0.377398,1.362301 -0.542969,2.054687 -0.978371,0.105363 -1.895949,0.232294 -2.753906,0.382813 -0.857956,0.135467 -1.587378,0.300419 -2.189453,0.496094 l 0.134766,2.935547 c 0.496711,-0.07526 1.105635,-0.149351 1.828125,-0.22461 0.737541,-0.09031 1.536575,-0.174741 2.394531,-0.25 -0.07526,0.571971 -0.136485,1.144826 -0.181641,1.716797 -0.0301,0.556919 -0.04492,1.10657 -0.04492,1.648437 v 0.04492 c -0.707437,0.105363 -1.360815,0.18784 -1.96289,0.248047 -0.602075,0.06021 -1.130475,0.106615 -1.582031,0.136719 l 0.203125,3.115234 h 0.453125 c 0.451556,0 0.939981,-0.0232 1.466797,-0.06836 0.541867,-0.04516 1.114722,-0.098 1.716796,-0.158203 0.24083,1.219201 0.646779,2.310118 1.21875,3.273437 0.571971,0.96332 1.345848,1.715946 2.324219,2.257813 0.978371,0.556919 2.198172,0.835937 3.658203,0.835937 1.354668,0 2.521629,-0.202974 3.5,-0.609375 0.978372,-0.391348 1.798656,-0.917796 2.460938,-1.580078 0.677334,-0.662282 1.233417,-1.40009 1.669922,-2.21289 0.451556,-0.827853 0.821436,-1.656523 1.107422,-2.484375 l -2.980469,-1.759766 c -0.617127,1.685809 -1.36332,2.994519 -2.236328,3.927734 -0.873009,0.933216 -1.985176,1.400391 -3.339844,1.400391 -0.571971,0 -1.11519,-0.10568 -1.626953,-0.316406 -0.511764,-0.210726 -0.962167,-0.578654 -1.353516,-1.105469 -0.391348,-0.526815 -0.685185,-1.25819 -0.880859,-2.191406 1.36972,-0.255882 2.693247,-0.5349 3.972656,-0.835938 1.279409,-0.316089 2.334257,-0.60154 3.162109,-0.857422 l -0.791015,-3.070312 c -0.812801,0.255882 -1.806423,0.520082 -2.980469,0.791015 -1.174046,0.255882 -2.385461,0.488493 -3.634766,0.699219 0.01505,-0.496711 0.03826,-0.999955 0.06836,-1.511719 0.04516,-0.526815 0.104428,-1.055215 0.179687,-1.582031 0.767645,-0.04515 1.528657,-0.07479 2.28125,-0.08984 0.752594,-0.0301 1.467197,-0.04492 2.144531,-0.04492 0.541868,0 1.047064,0.01482 1.513672,0.04492 0.48166,0.01505 0.90886,0.03826 1.285157,0.06836 l 0.136718,-3.09375 c -0.511763,-0.09031 -1.137458,-0.15797 -1.875,-0.203125 -0.737541,-0.04516 -1.543007,-0.06836 -2.416015,-0.06836 -0.782697,10e-7 -1.58621,0.01482 -2.414063,0.04492 0.285986,-1.098786 0.609459,-2.113659 0.970703,-3.046875 z m 31.136718,0.179688 -1.558593,0.722656 c 0.07526,0.24083 0.218961,0.55787 0.429687,0.949219 0.225778,0.376296 0.458389,0.737791 0.699219,1.083984 0.24083,0.346193 0.428986,0.593622 0.564453,0.744141 L 93.267578,76.75 C 92.951489,76.433911 92.657652,76.049212 92.386719,75.597656 92.115785,75.1461 91.906378,74.746584 91.755859,74.400391 Z m -7.767578,0.316406 c -0.677334,0 -1.385505,0.05284 -2.123047,0.158203 -0.737541,0.105363 -1.496599,0.272269 -2.279296,0.498047 l 0.857421,3.386719 c 0.571971,-0.210727 1.174463,-0.369247 1.806641,-0.47461 0.632178,-0.120415 1.226284,-0.18164 1.783203,-0.18164 0.632179,0 1.158626,0.08248 1.580078,0.248046 0.421453,0.165571 0.632813,0.444589 0.632813,0.835938 0,0.285985 -0.181724,0.632662 -0.542969,1.039062 -0.361245,0.391349 -0.887692,0.78248 -1.580078,1.173829 -0.677334,0.376296 -1.512436,0.684951 -2.505859,0.925781 l 0.677734,3.476562 c 0.285985,-0.07526 0.579822,-0.128099 0.880859,-0.158203 0.316089,-0.04515 0.631177,-0.06641 0.947266,-0.06641 0.782697,0 1.497301,0.103727 2.144531,0.314453 0.64723,0.195674 1.160813,0.512715 1.53711,0.949219 0.391348,0.421452 0.585937,0.971103 0.585937,1.648437 0,0.541868 -0.135316,1.038679 -0.40625,1.490235 -0.255882,0.436504 -0.594173,0.827635 -1.015625,1.173828 -0.4064,0.346193 -0.843939,0.646462 -1.310547,0.902344 -0.466608,0.240829 -0.902193,0.437372 -1.308594,0.58789 l 2.822266,2.619141 c 0.842905,-0.451556 1.633552,-0.986389 2.371094,-1.603516 0.752593,-0.617126 1.361517,-1.340116 1.828125,-2.167968 0.481659,-0.842905 0.722656,-1.804938 0.722656,-2.888672 0,-1.460031 -0.36988,-2.69465 -1.107422,-3.703125 -0.737541,-1.023527 -1.86648,-1.731699 -3.386719,-2.123047 0.346193,-0.180623 0.707688,-0.459641 1.083985,-0.835938 0.391348,-0.376296 0.723207,-0.811882 0.99414,-1.308594 0.285986,-0.511763 0.429688,-1.03821 0.429688,-1.580078 0,-0.240829 -0.04641,-0.543052 -0.136719,-0.904296 -0.09031,-0.361245 -0.255264,-0.737558 -0.496094,-1.128907 -0.240829,-0.4064 -0.587506,-0.782713 -1.039062,-1.128906 -0.451556,-0.346193 -1.045662,-0.623258 -1.783203,-0.833984 -0.72249,-0.225778 -1.610432,-0.339844 -2.664063,-0.339844 z m 52.085939,0.113281 c -0.51176,0.331141 -1.12069,0.71584 -1.82813,1.152344 -0.69238,0.436504 -1.4218,0.901726 -2.18945,1.398437 -0.75259,0.496712 -1.50522,1.001909 -2.25781,1.513672 -0.73754,0.511764 -1.41608,1.000189 -2.03321,1.466797 -0.61712,0.466608 -1.12875,0.880943 -1.53515,1.242188 -0.82785,0.752593 -1.4516,1.452379 -1.87305,2.099609 -0.4064,0.64723 -0.60937,1.279358 -0.60937,1.896484 0,0.617127 0.2094,1.226051 0.63086,1.828125 0.4365,0.602075 1.0854,1.236156 1.94336,1.898438 0.82785,0.632178 1.74543,1.226284 2.7539,1.783203 1.02353,0.556919 2.06999,1.068548 3.13867,1.535156 1.06869,0.466608 2.10676,0.880943 3.11524,1.242188 1.02353,0.361245 1.94949,0.669899 2.77734,0.925781 l 1.85156,-3.589844 c -1.50518,-0.4064 -2.98918,-0.867143 -4.44921,-1.378906 -1.44498,-0.526815 -2.76208,-1.074513 -3.95118,-1.646484 -1.18909,-0.587023 -2.12792,-1.151493 -2.82031,-1.69336 -0.46661,-0.376296 -0.70117,-0.746177 -0.70117,-1.107422 0,-0.391348 0.24938,-0.805683 0.74609,-1.242187 0.43651,-0.361245 1.00098,-0.790398 1.69336,-1.287109 0.70744,-0.496712 1.49613,-1.02316 2.36914,-1.580079 0.88806,-0.556919 1.81403,-1.113002 2.77735,-1.669921 0.97837,-0.571971 1.95717,-1.11519 2.93554,-1.626954 z m -25.7832,0.134766 c -1.29446,0 -2.68565,0.15852 -4.17579,0.474609 -1.47508,0.316089 -3.14724,0.874126 -5.01367,1.671875 l 1.01563,3.566406 c 0.70744,-0.331141 1.44524,-0.63141 2.21289,-0.902343 0.7827,-0.285986 1.54371,-0.535368 2.28125,-0.746094 0.75259,-0.210726 1.43756,-0.375679 2.05469,-0.496094 0.63217,-0.120415 1.15024,-0.181641 1.55664,-0.181641 0.49671,0 0.74609,0.09925 0.74609,0.294922 0,0.165571 -0.10568,0.353727 -0.31641,0.564454 -0.34619,0.346192 -0.88102,0.781778 -1.60351,1.308593 -0.70744,0.511764 -1.59538,1.038211 -2.66406,1.580078 -1.05364,0.541868 -2.27148,1.038679 -3.65625,1.490235 l 1.15039,3.544922 c 1.18909,-0.556919 2.22074,-0.962869 3.09375,-1.21875 0.873,-0.270934 1.60243,-0.450705 2.18945,-0.541016 0.58702,-0.09031 1.0542,-0.136719 1.40039,-0.136719 0.70744,0 1.36277,0.0973 1.96484,0.292969 0.61713,0.195674 1.11199,0.497896 1.48828,0.904297 0.3763,0.391348 0.56446,0.894592 0.56446,1.511719 0,0.436504 -0.19459,0.912064 -0.58594,1.423828 -0.3763,0.511763 -0.99361,0.947349 -1.85156,1.308594 -0.84291,0.361244 -1.95703,0.542968 -3.3418,0.542968 -0.7827,0 -1.67064,-0.08443 -2.66406,-0.25 -0.97837,-0.180622 -2.06286,-0.472506 -3.25195,-0.878906 l 0.4082,3.724609 c 1.17404,0.301038 2.26496,0.51883 3.27344,0.654297 1.00847,0.135467 1.93444,0.203125 2.77734,0.203125 1.86643,0 3.47541,-0.315087 4.83008,-0.947265 1.35467,-0.617127 2.3947,-1.445797 3.11719,-2.484375 0.73754,-1.038579 1.10546,-2.17395 1.10546,-3.408203 0,-0.873009 -0.18815,-1.648838 -0.56445,-2.326172 -0.36124,-0.677334 -0.85805,-1.250189 -1.49023,-1.716797 -0.61713,-0.48166 -1.31692,-0.843155 -2.09961,-1.083985 -0.7827,-0.240829 -1.5946,-0.359375 -2.4375,-0.359375 h -0.15821 c 0.60208,-0.255881 1.16655,-0.581307 1.69336,-0.972656 0.52682,-0.391348 0.95597,-0.841752 1.28711,-1.353515 0.3462,-0.526816 0.51758,-1.106103 0.51758,-1.738282 0,-0.767645 -0.21779,-1.39334 -0.6543,-1.875 -0.42145,-0.496711 -1.00074,-0.858206 -1.73828,-1.083984 -0.72249,-0.24083 -1.54277,-0.361328 -2.46093,-0.361328 z m 29.32812,4.132812 -1.10547,1.28711 c 0.16557,0.195674 0.40657,0.428285 0.72266,0.699218 0.33114,0.255882 0.65461,0.496879 0.9707,0.722657 0.33114,0.210726 0.58696,0.354428 0.76758,0.429687 l 0.90234,-1.558594 c -0.39135,-0.180622 -0.80373,-0.421619 -1.24023,-0.722656 -0.42145,-0.316089 -0.7617,-0.60154 -1.01758,-0.857422 z M 137.45312,80 l -1.35546,1.017578 c 0.12041,0.225778 0.32339,0.502843 0.60937,0.833984 0.30104,0.331142 0.60326,0.639796 0.9043,0.925782 0.31609,0.285985 0.5487,0.482527 0.69922,0.58789 l 1.10547,-1.40039 c -0.36125,-0.24083 -0.72918,-0.549485 -1.10547,-0.925782 C 137.9493,80.647714 137.66385,80.301037 137.45312,80 Z m -42.26562,3.658203 -3.09375,1.308594 c 0.376297,0.752593 0.722973,1.619285 1.039062,2.597656 0.31609,0.978371 0.586722,1.957176 0.8125,2.935547 0.24083,0.963319 0.414169,1.828058 0.519532,2.595703 L 98.03125,92.080078 C 97.955991,91.568315 97.82906,90.936187 97.648438,90.183594 97.467815,89.431 97.241637,88.648738 96.970703,87.835938 96.714821,87.023137 96.42937,86.247307 96.113281,85.509766 95.812244,84.772224 95.503589,84.154915 95.1875,83.658203 Z m -17.046875,1.896485 c -0.09031,0.255881 -0.225628,0.708238 -0.40625,1.355468 -0.165571,0.632179 -0.353727,1.361601 -0.564453,2.189453 -0.195674,0.827853 -0.369013,1.656523 -0.519531,2.484375 -0.150519,0.827853 -0.247814,1.557275 -0.292969,2.189454 l 3.544922,0.8125 c 0.105363,-0.752594 0.225861,-1.602514 0.361328,-2.550782 0.150519,-0.948267 0.321904,-1.897435 0.517578,-2.845703 0.195674,-0.963319 0.421853,-1.828058 0.677734,-2.595703 z" />
  </g>
</svg>
